<svg width="71" height="65" viewBox="0 0 71 65" fill="none" xmlns="http://www.w3.org/2000/svg">
<ellipse cx="35.5" cy="36" rx="35.5" ry="29" fill="#B7B7B7"/>
<ellipse cx="35.5" cy="29" rx="35.5" ry="29" fill="#E5E5E5"/>
<path d="M32.2665 18.0453C33.33 15.6933 36.67 15.6933 37.7335 18.0453L39.9554 22.959C40.4018 23.9462 41.3458 24.616 42.425 24.7114L47.7515 25.1819C50.4147 25.4171 51.4631 28.7555 49.4126 30.4711L45.6082 33.6541C44.7372 34.3828 44.3524 35.5408 44.6139 36.6459L45.7621 41.4978C46.3649 44.045 43.6444 46.0885 41.3659 44.8L36.4767 42.0351C35.5604 41.5169 34.4396 41.5169 33.5233 42.0351L28.6341 44.8C26.3556 46.0885 23.6351 44.045 24.2379 41.4978L25.3861 36.6459C25.6476 35.5408 25.2628 34.3828 24.3918 33.6541L20.5874 30.4711C18.5369 28.7555 19.5853 25.4171 22.2485 25.1819L27.575 24.7114C28.6542 24.616 29.5982 23.9462 30.0446 22.959L32.2665 18.0453Z" fill="#B7B7B7"/>
</svg>
