<svg width="71" height="65" viewBox="0 0 71 65" fill="none" xmlns="http://www.w3.org/2000/svg">
<ellipse cx="35.5" cy="36" rx="35.5" ry="29" fill="#A568CC"/>
<ellipse cx="35.5" cy="29" rx="35.5" ry="29" fill="#CE82FF"/>
<path d="M33.2665 14.7953C34.33 12.4433 37.67 12.4433 38.7335 14.7953L40.9554 19.709C41.4018 20.6962 42.3458 21.366 43.425 21.4614L48.7515 21.9319C51.4147 22.1671 52.4631 25.5055 50.4126 27.2211L46.6082 30.4041C45.7372 31.1328 45.3524 32.2908 45.6139 33.3959L46.7621 38.2478C47.3649 40.795 44.6444 42.8385 42.3659 41.55L37.4767 38.7851C36.5604 38.2669 35.4396 38.2669 34.5233 38.7851L29.6341 41.55C27.3556 42.8385 24.6351 40.795 25.2379 38.2478L26.3861 33.3959C26.6476 32.2908 26.2628 31.1328 25.3918 30.4041L21.5874 27.2211C19.5369 25.5055 20.5853 22.1671 23.2485 21.9319L28.575 21.4614C29.6542 21.366 30.5982 20.6962 31.0446 19.709L33.2665 14.7953Z" fill="white"/>
</svg>
