<svg width="120" height="139" viewBox="0 0 120 139" fill="none" xmlns="http://www.w3.org/2000/svg">
<path d="M101.694 108.166H101.65C98.0965 108.14 94.9935 105.044 92.4217 98.9637C92.1043 98.2147 92.4548 97.3476 93.2039 97.0302C93.9566 96.7129 94.82 97.0634 95.141 97.8125C96.5653 101.178 98.853 105.196 101.668 105.214H101.694C105.609 105.214 109.742 97.8383 110.882 95.2481C111.21 94.5027 112.081 94.1633 112.826 94.4917C113.572 94.8201 113.911 95.6945 113.583 96.4399C113.051 97.6427 108.225 108.166 101.694 108.166Z" fill="#133441"/>
<path d="M118.203 94.3262C117.458 94.4812 116.83 94.4812 116.299 94.3926C117.332 93.8207 118.273 92.8651 118.812 91.3338C119.085 90.5626 118.675 89.7103 117.904 89.4299C117.133 89.1495 116.284 89.5479 116.015 90.3191C115.288 92.3891 113.251 92.2046 112.86 92.1493H112.834L112.816 92.1419C112.403 92.0902 111.86 91.9537 111.624 91.629C111.392 91.308 111.462 90.8283 111.469 90.7877C111.639 90.0018 111.141 89.2122 110.351 89.0203C109.554 88.8284 108.761 89.3155 108.576 90.1125C108.536 90.2896 108.207 91.8836 109.189 93.2931C109.55 93.8133 110.185 94.4369 111.274 94.8133C111.93 98.9754 114.901 100.514 116.498 100.739C116.565 100.75 116.635 100.754 116.701 100.754C117.428 100.761 118.063 100.223 118.162 99.4809C118.266 98.6691 117.694 97.9164 116.882 97.802C116.871 97.7983 116.384 97.7208 115.819 97.3186C116.185 97.3814 116.572 97.422 116.985 97.4256C117.553 97.4293 118.17 97.374 118.834 97.2338C119.635 97.0677 120.14 96.2818 119.967 95.4811C119.79 94.6768 119 94.1639 118.203 94.3262Z" fill="#133441"/>
<path d="M73.4266 138.651C73.3934 138.651 73.3602 138.648 73.327 138.648C70.8253 138.482 69.545 137.526 69.4085 137.419C68.9768 137.08 68.7664 136.526 68.8697 135.987L72.5485 116.24C72.6997 115.435 73.4672 114.908 74.2716 115.059C75.0722 115.206 75.5999 115.978 75.4523 116.778L71.9765 135.423C72.3455 135.541 72.8584 135.659 73.5226 135.703C74.338 135.755 74.9505 136.46 74.8988 137.271C74.8472 138.054 74.1977 138.651 73.4266 138.651Z" fill="#133441"/>
<path d="M37.861 138.651C37.0899 138.651 36.4404 138.054 36.3888 137.271C36.3371 136.46 36.9496 135.755 37.765 135.703C38.7539 135.637 39.407 135.412 39.7613 135.249L45.8125 118.398C46.0892 117.631 46.9342 117.228 47.7017 117.505C48.4691 117.782 48.8676 118.627 48.5909 119.394L42.3588 136.755C42.2629 137.017 42.0968 137.246 41.8791 137.419C41.7426 137.526 40.4623 138.482 37.9606 138.648C37.9274 138.651 37.8942 138.651 37.861 138.651Z" fill="#133441"/>
<path d="M7.5712 108.782C6.81111 108.782 6.16168 108.196 6.10264 107.424C6.03622 106.609 6.64139 105.9 7.45683 105.834C10.2574 105.609 19.932 99.0818 25.3707 95.0156C26.0238 94.5286 26.95 94.6614 27.437 95.3145C27.9241 95.9676 27.7912 96.8937 27.1381 97.3808C24.6733 99.222 12.1576 108.421 7.68925 108.779C7.64866 108.779 7.61179 108.782 7.5712 108.782Z" fill="#133441"/>
<path d="M5.12869 110.878C4.55677 110.878 4.0144 110.546 3.77456 109.989C3.56794 109.52 3.62697 109 3.88526 108.601C1.74518 108.184 0.678864 107.336 0.520203 107.199C-0.099681 106.672 -0.177224 105.742 0.350415 105.118C0.874365 104.506 1.78945 104.424 2.41302 104.934C2.51264 105.011 4.02181 106.111 7.47545 105.834C8.03999 105.786 8.58236 106.07 8.86647 106.561C9.15427 107.048 9.13579 107.657 8.81847 108.129C8.69671 108.314 7.55658 109.952 5.71538 110.752C5.52351 110.837 5.32425 110.878 5.12869 110.878Z" fill="#133441"/>
<path d="M100.281 80.8138C100.281 102.827 82.4371 120.671 60.4276 120.671C38.418 120.671 20.5742 102.827 20.5742 80.8138C20.5742 46.0155 60.4276 0.000152588 60.4276 0.000152588C60.4276 0.000152588 100.281 46.0155 100.281 80.8138Z" fill="#6949FF"/>
<path d="M60.0847 117.852C44.3699 117.852 31.6328 108.074 31.6328 96.0117C31.6328 83.9498 44.3699 74.1719 60.0847 74.1719C75.7995 74.1719 88.5367 83.9498 88.5367 96.0117C88.5367 108.074 75.7995 117.852 60.0847 117.852Z" fill="#673AB3"/>
<path d="M57.2834 13.5191C57.2428 13.1797 56.8111 12.9657 56.5086 13.0469C54.6674 13.5339 53.4387 16.0134 52.4019 17.4857C51.0108 19.456 49.6972 21.4596 48.4427 23.5222C47.1956 25.5737 45.9669 27.6436 44.823 29.7579C43.8526 31.5511 41.8823 34.0676 42.0668 36.1597C42.1517 37.1596 43.1627 38.0894 44.1884 37.4622C46.0591 36.3146 46.8598 33.5547 47.8745 31.6655C49.0109 29.5439 50.1437 27.4223 51.3282 25.3265C52.5126 23.2307 53.7007 21.1349 54.8925 19.0464C55.8186 17.4229 57.5196 15.46 57.2834 13.5191Z" fill="white"/>
<path d="M40.9163 40.2626C39.8979 39.9489 39.0345 40.5577 38.6507 41.4617C38.433 41.9746 38.2154 42.4838 37.9977 42.993C37.6324 43.635 37.3335 44.3176 37.1269 45.0445C36.8612 45.9633 37.3704 46.9706 38.2929 47.2547C39.3039 47.5646 40.1046 46.9595 40.5031 46.0887C41.0418 44.9006 41.5767 43.7162 42.1155 42.5318C42.5213 41.6388 41.7686 40.5245 40.9163 40.2626Z" fill="white"/>
<path d="M27.0162 87.2893C27.2708 93.2003 32.2779 97.783 38.1926 97.5248C44.111 97.2702 48.7011 92.2742 48.4428 86.3632C48.1882 80.4558 43.1812 75.8731 37.2664 76.1277C31.348 76.386 26.758 81.3819 27.0162 87.2893Z" fill="white"/>
<path d="M42.5033 90.9758C41.8428 91.7285 40.8023 91.8909 40.1787 91.3448C39.5552 90.795 39.5847 89.7434 40.2452 88.9944C40.9056 88.2417 41.9498 88.0793 42.5734 88.6254C43.197 89.1752 43.1638 90.2268 42.5033 90.9758ZM36.821 86.0721C35.6772 87.3672 33.8766 87.6513 32.7992 86.703C31.7217 85.7585 31.7734 83.9394 32.9173 82.6406C34.0574 81.3455 35.858 81.0614 36.9354 82.006C38.0128 82.9542 37.9612 84.7733 36.821 86.0721ZM45.1046 86.5075C44.9275 82.4377 41.4776 79.2829 37.404 79.46C33.3268 79.6334 30.1684 83.076 30.3418 87.1458C30.5189 91.2157 33.9651 94.3741 38.0423 94.197C42.1195 94.0199 45.278 90.5773 45.1046 86.5075Z" fill="#133441"/>
<path d="M73.1461 87.2893C73.4007 93.2003 78.4078 97.783 84.3225 97.5248C90.2409 97.2702 94.831 92.2742 94.5728 86.3632C94.3182 80.4558 89.3111 75.8731 83.3964 76.1277C77.478 76.386 72.8878 81.3819 73.1461 87.2893Z" fill="white"/>
<path d="M89.1307 90.7102C88.4665 91.4592 87.4259 91.6252 86.8024 91.0791C86.1788 90.5294 86.2083 89.4778 86.8688 88.725C87.533 87.976 88.5735 87.81 89.197 88.3598C89.8206 88.9059 89.7911 89.9611 89.1307 90.7102ZM83.0499 85.6404C81.7511 86.7805 79.932 86.8396 78.98 85.7621C78.028 84.6884 78.3122 82.8915 79.6073 81.7477C80.9024 80.6038 82.7252 80.5485 83.6771 81.6222C84.6254 82.6959 84.345 84.4966 83.0499 85.6404ZM91.2301 86.5075C91.0567 82.4377 87.6067 79.2829 83.5332 79.46C79.456 79.6334 76.2938 83.076 76.471 87.1458C76.6481 91.2157 80.0981 94.3741 84.1716 94.197C88.2488 94.0199 91.4072 90.5773 91.2301 86.5075Z" fill="#133441"/>
<path d="M76.0609 66.6563C75.8137 68.5381 79.116 69.6377 82.8169 70.0472C86.134 70.4162 89.3294 71.0693 90.0932 68.6636C91.6577 63.7192 76.8136 60.9962 76.0609 66.6563Z" fill="#133441"/>
<path d="M31.4846 68.6187C32.23 71.0244 35.4327 70.3935 38.7498 70.0503C42.4544 69.6666 45.7641 68.5855 45.5279 66.7037C44.8158 61.0398 29.9534 63.6633 31.4846 68.6187Z" fill="#133441"/>
<path d="M95.3919 100.362C95.3919 101.738 93.3035 102.853 90.7317 102.853C88.1599 102.853 86.0752 101.738 86.0752 100.362C86.0752 98.9856 88.1599 97.8713 90.7317 97.8713C93.3035 97.8713 95.3919 98.9856 95.3919 100.362Z" fill="#A592FF"/>
<path d="M34.6028 100.362C34.6028 101.738 32.5144 102.853 29.9426 102.853C27.3708 102.853 25.2861 101.738 25.2861 100.362C25.2861 98.9856 27.3708 97.8713 29.9426 97.8713C32.5144 97.8713 34.6028 98.9856 34.6028 100.362Z" fill="#A592FF"/>
<path d="M55.4908 93.8903C56.1513 96.499 59.1068 97.6908 61.579 97.8236C63.601 97.9343 68.6596 96.82 68.298 93.953C68.2353 93.4696 67.8036 92.9309 67.2391 93.145C66.2687 93.5102 65.8924 94.4438 65.0179 94.9898C64.0548 95.5876 62.8962 95.8016 61.7782 95.7905C59.7562 95.7647 57.6051 95.0341 56.31 93.4106C55.989 93.0084 55.3801 93.4512 55.4908 93.8903Z" fill="#133441"/>
</svg>
